<svg xmlns="http://www.w3.org/2000/svg" width="360" height="360" viewBox="0 0 360 360">
    <g fill="none" fill-rule="evenodd">
        <path stroke="#FFF" stroke-width="2" d="M141.102 185.557C143.372 205.503 160.37 221 181 221c20.63 0 37.627-15.497 39.898-35.443h-2.047c-2.26 18.824-18.345 33.418-37.851 33.418s-35.59-14.594-37.85-33.418h-2.048zm-.102-8.101C142.8 157.024 160.022 141 181 141s38.2 16.024 40 36.456h-2.042c-1.794-19.311-18.103-34.43-37.958-34.43-19.855 0-36.164 15.119-37.958 34.43H141z"/>
        <path stroke="#FFF" stroke-width="4" d="M2 2h356v356H2z"/>
        <path fill="#FFF" d="M152.333 149.505L6.414 3.585 5 2.173 2.172 5l1.414 1.414 145.919 145.92c.9-.985 1.844-1.93 2.828-2.829zm-4.673 60.007L2.586 354.586 1.172 356 4 358.828l1.414-1.414 144.893-144.893a44.251 44.251 0 0 1-2.647-3.01zm64.007 4.983l142.919 142.92 1.414 1.413 2.828-2.828-1.414-1.414-142.919-142.92c-.9.985-1.844 1.93-2.828 2.829zm.854-64.188L358.414 4.414 359.828 3 357 .172l-1.414 1.414L209.512 147.66a44.251 44.251 0 0 1 3.01 2.647z"/>
        <text fill="#FFF" font-family="Roboto-Medium, Roboto" font-size="14" font-weight="400">
            <tspan x="159.415" y="178">PLACE</tspan> <tspan x="163.362" y="194">HERE</tspan>
        </text>
    </g>
</svg>
